<mxfile host="app.diagrams.net" modified="2023-05-29T20:55:37.558Z" agent="Mozilla/5.0 (Windows NT 10.0; Win64; x64) AppleWebKit/537.36 (KHTML, like Gecko) Chrome/113.0.0.0 Safari/537.36 Edg/113.0.1774.57" etag="9LmDfFOLdubKyDt50pc7" version="21.3.5" type="device">
  <diagram id="FON1SLslCWDrL8FvHyOj" name="Page-1">
    <mxGraphModel dx="2443" dy="717" grid="0" gridSize="10" guides="1" tooltips="1" connect="1" arrows="1" fold="1" page="0" pageScale="1" pageWidth="1169" pageHeight="1654" math="0" shadow="0">
      <root>
        <mxCell id="0" />
        <mxCell id="1" parent="0" />
        <mxCell id="_nHEcKlz6Lifmrje57NE-2" value="" style="endArrow=none;html=1;rounded=0;exitX=0.5;exitY=1;exitDx=0;exitDy=0;" parent="1" source="_nHEcKlz6Lifmrje57NE-25" edge="1">
          <mxGeometry width="50" height="50" relative="1" as="geometry">
            <mxPoint x="1038.8899999999999" y="270" as="sourcePoint" />
            <mxPoint x="1038.8899999999999" y="330" as="targetPoint" />
          </mxGeometry>
        </mxCell>
        <mxCell id="_nHEcKlz6Lifmrje57NE-3" value="" style="endArrow=none;html=1;rounded=0;" parent="1" edge="1">
          <mxGeometry width="50" height="50" relative="1" as="geometry">
            <mxPoint x="190" y="320" as="sourcePoint" />
            <mxPoint x="400" y="320" as="targetPoint" />
          </mxGeometry>
        </mxCell>
        <mxCell id="_nHEcKlz6Lifmrje57NE-7" value="" style="endArrow=none;html=1;rounded=0;" parent="1" edge="1">
          <mxGeometry width="50" height="50" relative="1" as="geometry">
            <mxPoint x="-853" y="674" as="sourcePoint" />
            <mxPoint x="-322" y="674" as="targetPoint" />
          </mxGeometry>
        </mxCell>
        <mxCell id="_nHEcKlz6Lifmrje57NE-8" value="" style="endArrow=classic;html=1;rounded=0;" parent="1" edge="1">
          <mxGeometry width="50" height="50" relative="1" as="geometry">
            <mxPoint x="-602" y="674" as="sourcePoint" />
            <mxPoint x="-602" y="754" as="targetPoint" />
          </mxGeometry>
        </mxCell>
        <mxCell id="_nHEcKlz6Lifmrje57NE-12" value="" style="endArrow=classic;html=1;rounded=0;fontSize=8;entryX=0.5;entryY=0;entryDx=0;entryDy=0;" parent="1" target="_nHEcKlz6Lifmrje57NE-27" edge="1">
          <mxGeometry width="50" height="50" relative="1" as="geometry">
            <mxPoint x="-507" y="674" as="sourcePoint" />
            <mxPoint x="-502" y="754.0000000000001" as="targetPoint" />
          </mxGeometry>
        </mxCell>
        <mxCell id="_nHEcKlz6Lifmrje57NE-16" value="" style="endArrow=classic;html=1;rounded=0;fontSize=8;" parent="1" edge="1">
          <mxGeometry width="50" height="50" relative="1" as="geometry">
            <mxPoint x="-402" y="674" as="sourcePoint" />
            <mxPoint x="-402" y="754" as="targetPoint" />
          </mxGeometry>
        </mxCell>
        <mxCell id="_nHEcKlz6Lifmrje57NE-17" value="" style="endArrow=classic;html=1;rounded=0;fontSize=8;" parent="1" edge="1">
          <mxGeometry width="50" height="50" relative="1" as="geometry">
            <mxPoint x="-322" y="674" as="sourcePoint" />
            <mxPoint x="-322" y="754" as="targetPoint" />
          </mxGeometry>
        </mxCell>
        <mxCell id="_nHEcKlz6Lifmrje57NE-18" value="" style="endArrow=none;html=1;rounded=0;fontSize=8;entryX=0.5;entryY=0;entryDx=0;entryDy=0;" parent="1" target="_nHEcKlz6Lifmrje57NE-30" edge="1">
          <mxGeometry width="50" height="50" relative="1" as="geometry">
            <mxPoint x="490" y="320" as="sourcePoint" />
            <mxPoint x="400" y="440" as="targetPoint" />
            <Array as="points" />
          </mxGeometry>
        </mxCell>
        <mxCell id="_nHEcKlz6Lifmrje57NE-19" value="" style="endArrow=none;html=1;rounded=0;fontSize=8;" parent="1" edge="1">
          <mxGeometry width="50" height="50" relative="1" as="geometry">
            <mxPoint x="400" y="320" as="sourcePoint" />
            <mxPoint x="1760" y="320" as="targetPoint" />
          </mxGeometry>
        </mxCell>
        <mxCell id="_nHEcKlz6Lifmrje57NE-20" value="" style="endArrow=none;html=1;rounded=0;fontSize=8;startArrow=none;" parent="1" edge="1">
          <mxGeometry width="50" height="50" relative="1" as="geometry">
            <mxPoint x="640" y="430" as="sourcePoint" />
            <mxPoint x="640" y="430" as="targetPoint" />
          </mxGeometry>
        </mxCell>
        <mxCell id="_nHEcKlz6Lifmrje57NE-25" value="&lt;span style=&quot;text-align: justify&quot;&gt;&lt;font size=&quot;1&quot;&gt;&lt;b style=&quot;font-size: 18px&quot;&gt;MENU PRINCIPAL&amp;nbsp;&lt;/b&gt;&lt;/font&gt;&lt;/span&gt;&lt;span style=&quot;font-size: 12px ; text-align: justify&quot;&gt;&#x9;&lt;/span&gt;" style="rounded=1;whiteSpace=wrap;html=1;fontSize=8;fillColor=#dae8fc;strokeColor=#6c8ebf;" parent="1" vertex="1">
          <mxGeometry x="920" y="60" width="240" height="120" as="geometry" />
        </mxCell>
        <mxCell id="_nHEcKlz6Lifmrje57NE-26" value="MEDIA" style="rounded=1;whiteSpace=wrap;html=1;fontSize=8;" parent="1" vertex="1">
          <mxGeometry x="-642" y="754" width="80" height="60" as="geometry" />
        </mxCell>
        <mxCell id="_nHEcKlz6Lifmrje57NE-27" value="VARIANZA" style="rounded=1;whiteSpace=wrap;html=1;fontSize=8;" parent="1" vertex="1">
          <mxGeometry x="-542" y="754" width="70" height="60" as="geometry" />
        </mxCell>
        <mxCell id="_nHEcKlz6Lifmrje57NE-28" value="DESVIACION TIPICA" style="rounded=1;whiteSpace=wrap;html=1;fontSize=8;" parent="1" vertex="1">
          <mxGeometry x="-442" y="754" width="70" height="60" as="geometry" />
        </mxCell>
        <mxCell id="_nHEcKlz6Lifmrje57NE-29" value="RANGO" style="rounded=1;whiteSpace=wrap;html=1;fontSize=8;" parent="1" vertex="1">
          <mxGeometry x="-352" y="754" width="60" height="60" as="geometry" />
        </mxCell>
        <mxCell id="_nHEcKlz6Lifmrje57NE-30" value="&lt;b&gt;&lt;font style=&quot;font-size: 10px&quot;&gt;BUSCAR DATOS&lt;/font&gt;&lt;/b&gt;" style="rounded=1;whiteSpace=wrap;html=1;fontSize=8;fillColor=#d5e8d4;strokeColor=#82b366;" parent="1" vertex="1">
          <mxGeometry x="430" y="440" width="120" height="60" as="geometry" />
        </mxCell>
        <mxCell id="_nHEcKlz6Lifmrje57NE-31" value="" style="endArrow=none;html=1;rounded=0;fontSize=10;entryX=0.5;entryY=1;entryDx=0;entryDy=0;startArrow=none;" parent="1" source="_nHEcKlz6Lifmrje57NE-116" target="_nHEcKlz6Lifmrje57NE-30" edge="1">
          <mxGeometry width="50" height="50" relative="1" as="geometry">
            <mxPoint x="490" y="680" as="sourcePoint" />
            <mxPoint x="500" y="450" as="targetPoint" />
          </mxGeometry>
        </mxCell>
        <mxCell id="_nHEcKlz6Lifmrje57NE-35" value="TIPO DE ENERGÍA" style="rounded=1;whiteSpace=wrap;html=1;fontSize=10;" parent="1" vertex="1">
          <mxGeometry x="446" y="680" width="120" height="60" as="geometry" />
        </mxCell>
        <mxCell id="_nHEcKlz6Lifmrje57NE-50" value="" style="endArrow=classic;html=1;rounded=0;fontSize=9;exitX=0.5;exitY=1;exitDx=0;exitDy=0;" parent="1" edge="1" source="_nHEcKlz6Lifmrje57NE-35">
          <mxGeometry width="50" height="50" relative="1" as="geometry">
            <mxPoint x="616" y="900" as="sourcePoint" />
            <mxPoint x="506" y="811" as="targetPoint" />
          </mxGeometry>
        </mxCell>
        <mxCell id="_nHEcKlz6Lifmrje57NE-52" value="" style="endArrow=none;html=1;rounded=0;fontSize=8;" parent="1" edge="1">
          <mxGeometry width="50" height="50" relative="1" as="geometry">
            <mxPoint x="720" y="320" as="sourcePoint" />
            <mxPoint x="720" y="390" as="targetPoint" />
          </mxGeometry>
        </mxCell>
        <mxCell id="_nHEcKlz6Lifmrje57NE-53" value="&lt;b&gt;IMPRIMIR DATOS&lt;/b&gt;" style="rounded=1;whiteSpace=wrap;html=1;fontSize=9;fillColor=#d5e8d4;strokeColor=#82b366;" parent="1" vertex="1">
          <mxGeometry x="660" y="390" width="120" height="60" as="geometry" />
        </mxCell>
        <mxCell id="_nHEcKlz6Lifmrje57NE-54" value="" style="endArrow=none;html=1;rounded=0;fontSize=9;" parent="1" edge="1">
          <mxGeometry width="50" height="50" relative="1" as="geometry">
            <mxPoint x="719.5" y="510" as="sourcePoint" />
            <mxPoint x="719.5" y="450" as="targetPoint" />
            <Array as="points" />
          </mxGeometry>
        </mxCell>
        <mxCell id="_nHEcKlz6Lifmrje57NE-55" value="" style="endArrow=none;html=1;rounded=0;fontSize=9;startArrow=none;exitX=1;exitY=0.5;exitDx=0;exitDy=0;" parent="1" source="_nHEcKlz6Lifmrje57NE-118" edge="1">
          <mxGeometry width="50" height="50" relative="1" as="geometry">
            <mxPoint x="650" y="510" as="sourcePoint" />
            <mxPoint x="820" y="500" as="targetPoint" />
          </mxGeometry>
        </mxCell>
        <mxCell id="_nHEcKlz6Lifmrje57NE-57" value="TODOS" style="rounded=1;whiteSpace=wrap;html=1;fontSize=9;" parent="1" vertex="1">
          <mxGeometry x="590" y="550" width="120" height="60" as="geometry" />
        </mxCell>
        <mxCell id="_nHEcKlz6Lifmrje57NE-58" value="" style="endArrow=classic;html=1;rounded=0;fontSize=9;" parent="1" edge="1">
          <mxGeometry width="50" height="50" relative="1" as="geometry">
            <mxPoint x="650" y="500" as="sourcePoint" />
            <mxPoint x="650" y="550" as="targetPoint" />
          </mxGeometry>
        </mxCell>
        <mxCell id="_nHEcKlz6Lifmrje57NE-59" value="" style="endArrow=classic;html=1;rounded=0;fontSize=9;" parent="1" target="_nHEcKlz6Lifmrje57NE-60" edge="1">
          <mxGeometry width="50" height="50" relative="1" as="geometry">
            <mxPoint x="720" y="510" as="sourcePoint" />
            <mxPoint x="720" y="640" as="targetPoint" />
          </mxGeometry>
        </mxCell>
        <mxCell id="_nHEcKlz6Lifmrje57NE-60" value="ANUALES" style="rounded=1;whiteSpace=wrap;html=1;fontSize=9;" parent="1" vertex="1">
          <mxGeometry x="660" y="630" width="120" height="60" as="geometry" />
        </mxCell>
        <mxCell id="_nHEcKlz6Lifmrje57NE-61" value="" style="endArrow=classic;html=1;rounded=0;fontSize=9;" parent="1" edge="1">
          <mxGeometry width="50" height="50" relative="1" as="geometry">
            <mxPoint x="820" y="500" as="sourcePoint" />
            <mxPoint x="820" y="560" as="targetPoint" />
          </mxGeometry>
        </mxCell>
        <mxCell id="_nHEcKlz6Lifmrje57NE-62" value="TIPO DE ENERGIA" style="rounded=1;whiteSpace=wrap;html=1;fontSize=9;" parent="1" vertex="1">
          <mxGeometry x="770" y="560" width="120" height="60" as="geometry" />
        </mxCell>
        <mxCell id="_nHEcKlz6Lifmrje57NE-63" value="" style="endArrow=classic;html=1;rounded=0;fontSize=9;" parent="1" edge="1">
          <mxGeometry width="50" height="50" relative="1" as="geometry">
            <mxPoint x="1040" y="320" as="sourcePoint" />
            <mxPoint x="1040" y="410" as="targetPoint" />
          </mxGeometry>
        </mxCell>
        <mxCell id="_nHEcKlz6Lifmrje57NE-129" style="edgeStyle=orthogonalEdgeStyle;rounded=0;orthogonalLoop=1;jettySize=auto;html=1;exitX=0.5;exitY=0;exitDx=0;exitDy=0;fontSize=18;" parent="1" source="_nHEcKlz6Lifmrje57NE-65" edge="1">
          <mxGeometry relative="1" as="geometry">
            <mxPoint x="1040.1836734693877" y="499.9591836734693" as="targetPoint" />
          </mxGeometry>
        </mxCell>
        <mxCell id="_nHEcKlz6Lifmrje57NE-65" value="CUALES?" style="rhombus;whiteSpace=wrap;html=1;fontSize=9;fillColor=#ffe6cc;strokeColor=#d79b00;" parent="1" vertex="1">
          <mxGeometry x="1000" y="500" width="80" height="80" as="geometry" />
        </mxCell>
        <mxCell id="_nHEcKlz6Lifmrje57NE-71" value="DE MENOR A MAYOR" style="rounded=1;whiteSpace=wrap;html=1;fontSize=9;" parent="1" vertex="1">
          <mxGeometry x="920" y="675" width="120" height="60" as="geometry" />
        </mxCell>
        <mxCell id="_nHEcKlz6Lifmrje57NE-73" value="DE MAYOR A MENOR&amp;nbsp;" style="rounded=1;whiteSpace=wrap;html=1;fontSize=9;" parent="1" vertex="1">
          <mxGeometry x="1060" y="675" width="120" height="60" as="geometry" />
        </mxCell>
        <mxCell id="_nHEcKlz6Lifmrje57NE-74" value="" style="endArrow=none;html=1;rounded=0;fontSize=9;" parent="1" edge="1">
          <mxGeometry width="50" height="50" relative="1" as="geometry">
            <mxPoint x="1320" y="320" as="sourcePoint" />
            <mxPoint x="1320" y="400" as="targetPoint" />
          </mxGeometry>
        </mxCell>
        <mxCell id="_nHEcKlz6Lifmrje57NE-75" value="&lt;b&gt;CONSULTAR DATOS GUARDADOS&amp;nbsp;&lt;/b&gt;" style="rounded=1;whiteSpace=wrap;html=1;fontSize=9;fillColor=#d5e8d4;strokeColor=#82b366;" parent="1" vertex="1">
          <mxGeometry x="1260" y="400" width="120" height="60" as="geometry" />
        </mxCell>
        <mxCell id="_nHEcKlz6Lifmrje57NE-76" value="" style="endArrow=classic;html=1;rounded=0;fontSize=9;exitX=0.5;exitY=1;exitDx=0;exitDy=0;" parent="1" source="_nHEcKlz6Lifmrje57NE-75" edge="1">
          <mxGeometry width="50" height="50" relative="1" as="geometry">
            <mxPoint x="1250" y="460" as="sourcePoint" />
            <mxPoint x="1320" y="490" as="targetPoint" />
          </mxGeometry>
        </mxCell>
        <mxCell id="_nHEcKlz6Lifmrje57NE-78" value="" style="endArrow=classic;html=1;rounded=0;fontSize=9;" parent="1" target="_nHEcKlz6Lifmrje57NE-79" edge="1">
          <mxGeometry width="50" height="50" relative="1" as="geometry">
            <mxPoint x="1520" y="320" as="sourcePoint" />
            <mxPoint x="1520" y="400" as="targetPoint" />
          </mxGeometry>
        </mxCell>
        <mxCell id="_nHEcKlz6Lifmrje57NE-79" value="&lt;b&gt;AÑADIR DATOS&lt;/b&gt;" style="rounded=1;whiteSpace=wrap;html=1;fontSize=9;fillColor=#d5e8d4;strokeColor=#82b366;" parent="1" vertex="1">
          <mxGeometry x="1460" y="400" width="120" height="60" as="geometry" />
        </mxCell>
        <mxCell id="_nHEcKlz6Lifmrje57NE-80" value="" style="endArrow=none;html=1;rounded=0;fontSize=9;exitX=0.5;exitY=1;exitDx=0;exitDy=0;" parent="1" source="_nHEcKlz6Lifmrje57NE-79" target="_nHEcKlz6Lifmrje57NE-81" edge="1">
          <mxGeometry width="50" height="50" relative="1" as="geometry">
            <mxPoint x="1510" y="500" as="sourcePoint" />
            <mxPoint x="1520" y="520" as="targetPoint" />
          </mxGeometry>
        </mxCell>
        <mxCell id="_nHEcKlz6Lifmrje57NE-102" style="edgeStyle=orthogonalEdgeStyle;rounded=0;orthogonalLoop=1;jettySize=auto;html=1;exitX=0.5;exitY=1;exitDx=0;exitDy=0;entryX=0.5;entryY=0;entryDx=0;entryDy=0;fontSize=9;" parent="1" source="_nHEcKlz6Lifmrje57NE-81" target="_nHEcKlz6Lifmrje57NE-88" edge="1">
          <mxGeometry relative="1" as="geometry" />
        </mxCell>
        <mxCell id="_nHEcKlz6Lifmrje57NE-81" value="QUE DATOS?" style="rhombus;whiteSpace=wrap;html=1;fontSize=9;fillColor=#ffe6cc;strokeColor=#d79b00;" parent="1" vertex="1">
          <mxGeometry x="1480" y="490" width="80" height="80" as="geometry" />
        </mxCell>
        <mxCell id="_nHEcKlz6Lifmrje57NE-88" value="TIPO DE ENERGIA" style="rounded=1;whiteSpace=wrap;html=1;fontSize=9;" parent="1" vertex="1">
          <mxGeometry x="1460" y="647" width="120" height="60" as="geometry" />
        </mxCell>
        <mxCell id="_nHEcKlz6Lifmrje57NE-93" value="" style="endArrow=classic;html=1;rounded=0;fontSize=9;" parent="1" edge="1">
          <mxGeometry width="50" height="50" relative="1" as="geometry">
            <mxPoint x="1520" y="707" as="sourcePoint" />
            <mxPoint x="1520" y="727" as="targetPoint" />
          </mxGeometry>
        </mxCell>
        <mxCell id="_nHEcKlz6Lifmrje57NE-95" value="" style="endArrow=classic;html=1;rounded=0;fontSize=9;entryX=0.5;entryY=0;entryDx=0;entryDy=0;" parent="1" target="_nHEcKlz6Lifmrje57NE-96" edge="1">
          <mxGeometry width="50" height="50" relative="1" as="geometry">
            <mxPoint x="1760" y="320" as="sourcePoint" />
            <mxPoint x="1720" y="400" as="targetPoint" />
            <Array as="points" />
          </mxGeometry>
        </mxCell>
        <mxCell id="_nHEcKlz6Lifmrje57NE-104" style="edgeStyle=orthogonalEdgeStyle;rounded=0;orthogonalLoop=1;jettySize=auto;html=1;entryX=0.5;entryY=0;entryDx=0;entryDy=0;fontSize=9;" parent="1" source="_nHEcKlz6Lifmrje57NE-96" target="_nHEcKlz6Lifmrje57NE-99" edge="1">
          <mxGeometry relative="1" as="geometry" />
        </mxCell>
        <mxCell id="_nHEcKlz6Lifmrje57NE-96" value="&lt;b&gt;MAX Y MINIMOS&lt;/b&gt;" style="rounded=1;whiteSpace=wrap;html=1;fontSize=9;fillColor=#d5e8d4;strokeColor=#82b366;" parent="1" vertex="1">
          <mxGeometry x="1700" y="390" width="120" height="60" as="geometry" />
        </mxCell>
        <mxCell id="_nHEcKlz6Lifmrje57NE-107" style="edgeStyle=orthogonalEdgeStyle;rounded=0;orthogonalLoop=1;jettySize=auto;html=1;fontSize=9;" parent="1" source="_nHEcKlz6Lifmrje57NE-99" target="_nHEcKlz6Lifmrje57NE-106" edge="1">
          <mxGeometry relative="1" as="geometry" />
        </mxCell>
        <mxCell id="_nHEcKlz6Lifmrje57NE-99" value="CUALES?" style="rhombus;whiteSpace=wrap;html=1;fontSize=9;fillColor=#ffe6cc;strokeColor=#d79b00;" parent="1" vertex="1">
          <mxGeometry x="1720" y="500" width="80" height="80" as="geometry" />
        </mxCell>
        <mxCell id="_nHEcKlz6Lifmrje57NE-106" value="MENSUALES" style="rounded=1;whiteSpace=wrap;html=1;fontSize=9;" parent="1" vertex="1">
          <mxGeometry x="1700" y="672" width="120" height="60" as="geometry" />
        </mxCell>
        <mxCell id="_nHEcKlz6Lifmrje57NE-116" value="CUALES?" style="rhombus;whiteSpace=wrap;html=1;fontSize=9;fillColor=#ffe6cc;strokeColor=#d79b00;" parent="1" vertex="1">
          <mxGeometry x="450" y="570" width="80" height="80" as="geometry" />
        </mxCell>
        <mxCell id="_nHEcKlz6Lifmrje57NE-117" value="" style="endArrow=none;html=1;rounded=0;fontSize=10;entryX=0.5;entryY=1;entryDx=0;entryDy=0;" parent="1" target="_nHEcKlz6Lifmrje57NE-116" edge="1">
          <mxGeometry width="50" height="50" relative="1" as="geometry">
            <mxPoint x="490" y="680" as="sourcePoint" />
            <mxPoint x="490" y="500" as="targetPoint" />
          </mxGeometry>
        </mxCell>
        <mxCell id="_nHEcKlz6Lifmrje57NE-118" value="CUALES?" style="rhombus;whiteSpace=wrap;html=1;fontSize=9;fillColor=#ffe6cc;strokeColor=#d79b00;" parent="1" vertex="1">
          <mxGeometry x="680" y="460" width="80" height="80" as="geometry" />
        </mxCell>
        <mxCell id="_nHEcKlz6Lifmrje57NE-119" value="" style="endArrow=none;html=1;rounded=0;fontSize=9;" parent="1" target="_nHEcKlz6Lifmrje57NE-118" edge="1">
          <mxGeometry width="50" height="50" relative="1" as="geometry">
            <mxPoint x="650" y="500" as="sourcePoint" />
            <mxPoint x="820" y="510" as="targetPoint" />
          </mxGeometry>
        </mxCell>
        <mxCell id="_nHEcKlz6Lifmrje57NE-121" value="&lt;b&gt;&lt;font style=&quot;font-size: 11px&quot;&gt;ORDENAR VALORES&lt;/font&gt;&lt;/b&gt;" style="rounded=1;whiteSpace=wrap;html=1;fontSize=18;fillColor=#d5e8d4;strokeColor=#82b366;" parent="1" vertex="1">
          <mxGeometry x="980" y="410" width="120" height="60" as="geometry" />
        </mxCell>
        <mxCell id="_nHEcKlz6Lifmrje57NE-123" value="" style="endArrow=none;html=1;rounded=0;fontSize=18;exitX=0.5;exitY=1;exitDx=0;exitDy=0;" parent="1" source="_nHEcKlz6Lifmrje57NE-65" edge="1">
          <mxGeometry width="50" height="50" relative="1" as="geometry">
            <mxPoint x="1030" y="670" as="sourcePoint" />
            <mxPoint x="1040" y="630" as="targetPoint" />
          </mxGeometry>
        </mxCell>
        <mxCell id="_nHEcKlz6Lifmrje57NE-124" value="" style="endArrow=none;html=1;rounded=0;fontSize=18;" parent="1" edge="1">
          <mxGeometry width="50" height="50" relative="1" as="geometry">
            <mxPoint x="970" y="630" as="sourcePoint" />
            <mxPoint x="1110" y="630" as="targetPoint" />
          </mxGeometry>
        </mxCell>
        <mxCell id="_nHEcKlz6Lifmrje57NE-126" value="" style="endArrow=classic;html=1;rounded=0;fontSize=18;entryX=0.423;entryY=0.01;entryDx=0;entryDy=0;entryPerimeter=0;" parent="1" target="_nHEcKlz6Lifmrje57NE-71" edge="1">
          <mxGeometry width="50" height="50" relative="1" as="geometry">
            <mxPoint x="970" y="630" as="sourcePoint" />
            <mxPoint x="1080" y="620" as="targetPoint" />
          </mxGeometry>
        </mxCell>
        <mxCell id="_nHEcKlz6Lifmrje57NE-127" value="" style="endArrow=classic;html=1;rounded=0;fontSize=18;entryX=0.413;entryY=0.042;entryDx=0;entryDy=0;entryPerimeter=0;" parent="1" target="_nHEcKlz6Lifmrje57NE-73" edge="1">
          <mxGeometry width="50" height="50" relative="1" as="geometry">
            <mxPoint x="1110" y="630" as="sourcePoint" />
            <mxPoint x="1080" y="620" as="targetPoint" />
          </mxGeometry>
        </mxCell>
        <mxCell id="_nHEcKlz6Lifmrje57NE-130" value="" style="endArrow=none;html=1;rounded=0;fontSize=18;exitX=0.5;exitY=0;exitDx=0;exitDy=0;entryX=0.5;entryY=1;entryDx=0;entryDy=0;" parent="1" source="_nHEcKlz6Lifmrje57NE-65" target="_nHEcKlz6Lifmrje57NE-121" edge="1">
          <mxGeometry width="50" height="50" relative="1" as="geometry">
            <mxPoint x="1030" y="460" as="sourcePoint" />
            <mxPoint x="1080" y="410" as="targetPoint" />
          </mxGeometry>
        </mxCell>
        <mxCell id="twIbyYaH0i1dScP80TUg-2" value="" style="endArrow=none;html=1;rounded=0;" edge="1" parent="1">
          <mxGeometry width="50" height="50" relative="1" as="geometry">
            <mxPoint x="-179" y="670" as="sourcePoint" />
            <mxPoint x="291" y="670" as="targetPoint" />
          </mxGeometry>
        </mxCell>
        <mxCell id="twIbyYaH0i1dScP80TUg-3" value="" style="endArrow=classic;html=1;rounded=0;" edge="1" parent="1">
          <mxGeometry width="50" height="50" relative="1" as="geometry">
            <mxPoint x="-69" y="670" as="sourcePoint" />
            <mxPoint x="-69" y="750" as="targetPoint" />
          </mxGeometry>
        </mxCell>
        <mxCell id="twIbyYaH0i1dScP80TUg-4" value="" style="endArrow=classic;html=1;rounded=0;fontSize=8;entryX=0.5;entryY=0;entryDx=0;entryDy=0;" edge="1" target="twIbyYaH0i1dScP80TUg-8" parent="1">
          <mxGeometry width="50" height="50" relative="1" as="geometry">
            <mxPoint x="26" y="670" as="sourcePoint" />
            <mxPoint x="31" y="750.0000000000001" as="targetPoint" />
          </mxGeometry>
        </mxCell>
        <mxCell id="twIbyYaH0i1dScP80TUg-5" value="" style="endArrow=classic;html=1;rounded=0;fontSize=8;" edge="1" parent="1">
          <mxGeometry width="50" height="50" relative="1" as="geometry">
            <mxPoint x="131" y="670" as="sourcePoint" />
            <mxPoint x="131" y="750" as="targetPoint" />
          </mxGeometry>
        </mxCell>
        <mxCell id="twIbyYaH0i1dScP80TUg-6" value="" style="endArrow=classic;html=1;rounded=0;fontSize=8;" edge="1" parent="1">
          <mxGeometry width="50" height="50" relative="1" as="geometry">
            <mxPoint x="211" y="670" as="sourcePoint" />
            <mxPoint x="211" y="750" as="targetPoint" />
          </mxGeometry>
        </mxCell>
        <mxCell id="twIbyYaH0i1dScP80TUg-7" value="MEDIA" style="rounded=1;whiteSpace=wrap;html=1;fontSize=8;" vertex="1" parent="1">
          <mxGeometry x="-109" y="750" width="80" height="60" as="geometry" />
        </mxCell>
        <mxCell id="twIbyYaH0i1dScP80TUg-8" value="VARIANZA" style="rounded=1;whiteSpace=wrap;html=1;fontSize=8;" vertex="1" parent="1">
          <mxGeometry x="-9" y="750" width="70" height="60" as="geometry" />
        </mxCell>
        <mxCell id="twIbyYaH0i1dScP80TUg-9" value="DESVIACION TIPICA" style="rounded=1;whiteSpace=wrap;html=1;fontSize=8;" vertex="1" parent="1">
          <mxGeometry x="91" y="750" width="70" height="60" as="geometry" />
        </mxCell>
        <mxCell id="twIbyYaH0i1dScP80TUg-10" value="RANGO" style="rounded=1;whiteSpace=wrap;html=1;fontSize=8;" vertex="1" parent="1">
          <mxGeometry x="181" y="750" width="60" height="60" as="geometry" />
        </mxCell>
        <mxCell id="twIbyYaH0i1dScP80TUg-11" value="" style="endArrow=none;html=1;rounded=0;" edge="1" parent="1">
          <mxGeometry width="50" height="50" relative="1" as="geometry">
            <mxPoint x="-406" y="492" as="sourcePoint" />
            <mxPoint x="84" y="492" as="targetPoint" />
          </mxGeometry>
        </mxCell>
        <mxCell id="twIbyYaH0i1dScP80TUg-12" value="" style="endArrow=none;html=1;rounded=0;" edge="1" parent="1">
          <mxGeometry width="50" height="50" relative="1" as="geometry">
            <mxPoint x="-398" y="673" as="sourcePoint" />
            <mxPoint x="-401" y="492" as="targetPoint" />
          </mxGeometry>
        </mxCell>
        <mxCell id="twIbyYaH0i1dScP80TUg-13" value="" style="endArrow=none;html=1;rounded=0;" edge="1" parent="1">
          <mxGeometry width="50" height="50" relative="1" as="geometry">
            <mxPoint x="83" y="667" as="sourcePoint" />
            <mxPoint x="83" y="491" as="targetPoint" />
          </mxGeometry>
        </mxCell>
        <mxCell id="twIbyYaH0i1dScP80TUg-14" value="" style="endArrow=none;html=1;rounded=0;" edge="1" parent="1">
          <mxGeometry width="50" height="50" relative="1" as="geometry">
            <mxPoint x="-97" y="320" as="sourcePoint" />
            <mxPoint x="191" y="320" as="targetPoint" />
          </mxGeometry>
        </mxCell>
        <mxCell id="twIbyYaH0i1dScP80TUg-15" value="" style="endArrow=none;html=1;rounded=0;exitX=0.5;exitY=0;exitDx=0;exitDy=0;" edge="1" parent="1">
          <mxGeometry width="50" height="50" relative="1" as="geometry">
            <mxPoint x="-98" y="340" as="sourcePoint" />
            <mxPoint x="-98" y="321" as="targetPoint" />
          </mxGeometry>
        </mxCell>
        <mxCell id="twIbyYaH0i1dScP80TUg-17" value="" style="endArrow=classic;html=1;rounded=0;fontSize=8;" edge="1" parent="1">
          <mxGeometry width="50" height="50" relative="1" as="geometry">
            <mxPoint x="-703" y="671" as="sourcePoint" />
            <mxPoint x="-703" y="751" as="targetPoint" />
          </mxGeometry>
        </mxCell>
        <mxCell id="twIbyYaH0i1dScP80TUg-18" value="" style="endArrow=classic;html=1;rounded=0;fontSize=8;" edge="1" parent="1">
          <mxGeometry width="50" height="50" relative="1" as="geometry">
            <mxPoint x="-179" y="667" as="sourcePoint" />
            <mxPoint x="-179" y="747" as="targetPoint" />
          </mxGeometry>
        </mxCell>
        <mxCell id="twIbyYaH0i1dScP80TUg-19" value="MODA" style="rounded=1;whiteSpace=wrap;html=1;fontSize=8;" vertex="1" parent="1">
          <mxGeometry x="-743" y="752" width="80" height="60" as="geometry" />
        </mxCell>
        <mxCell id="twIbyYaH0i1dScP80TUg-21" value="MODA" style="rounded=1;whiteSpace=wrap;html=1;fontSize=8;" vertex="1" parent="1">
          <mxGeometry x="-224" y="747" width="80" height="60" as="geometry" />
        </mxCell>
        <mxCell id="twIbyYaH0i1dScP80TUg-22" value="Calculos con energía especifica" style="rounded=1;whiteSpace=wrap;html=1;" vertex="1" parent="1">
          <mxGeometry x="20" y="550" width="120" height="60" as="geometry" />
        </mxCell>
        <mxCell id="twIbyYaH0i1dScP80TUg-23" value="Calculos gloables" style="rounded=1;whiteSpace=wrap;html=1;" vertex="1" parent="1">
          <mxGeometry x="-443" y="570" width="120" height="60" as="geometry" />
        </mxCell>
        <mxCell id="twIbyYaH0i1dScP80TUg-24" value="" style="endArrow=classic;html=1;rounded=0;" edge="1" parent="1" source="twIbyYaH0i1dScP80TUg-25">
          <mxGeometry width="50" height="50" relative="1" as="geometry">
            <mxPoint x="-851" y="667" as="sourcePoint" />
            <mxPoint x="-851" y="747" as="targetPoint" />
          </mxGeometry>
        </mxCell>
        <mxCell id="twIbyYaH0i1dScP80TUg-26" value="" style="endArrow=classic;html=1;rounded=0;" edge="1" parent="1" target="twIbyYaH0i1dScP80TUg-25">
          <mxGeometry width="50" height="50" relative="1" as="geometry">
            <mxPoint x="-845" y="674" as="sourcePoint" />
            <mxPoint x="-851" y="747" as="targetPoint" />
            <Array as="points" />
          </mxGeometry>
        </mxCell>
        <mxCell id="twIbyYaH0i1dScP80TUg-25" value="MEDIANA" style="rounded=1;whiteSpace=wrap;html=1;fontSize=8;" vertex="1" parent="1">
          <mxGeometry x="-885" y="750" width="80" height="63" as="geometry" />
        </mxCell>
        <mxCell id="twIbyYaH0i1dScP80TUg-27" value="" style="endArrow=classic;html=1;rounded=0;fontSize=8;" edge="1" parent="1" source="twIbyYaH0i1dScP80TUg-28">
          <mxGeometry width="50" height="50" relative="1" as="geometry">
            <mxPoint x="297" y="670" as="sourcePoint" />
            <mxPoint x="297" y="750" as="targetPoint" />
          </mxGeometry>
        </mxCell>
        <mxCell id="twIbyYaH0i1dScP80TUg-29" value="" style="endArrow=classic;html=1;rounded=0;fontSize=8;" edge="1" parent="1" target="twIbyYaH0i1dScP80TUg-28">
          <mxGeometry width="50" height="50" relative="1" as="geometry">
            <mxPoint x="289" y="670" as="sourcePoint" />
            <mxPoint x="297" y="750" as="targetPoint" />
          </mxGeometry>
        </mxCell>
        <mxCell id="twIbyYaH0i1dScP80TUg-28" value="MEDIANA" style="rounded=1;whiteSpace=wrap;html=1;fontSize=8;" vertex="1" parent="1">
          <mxGeometry x="259" y="752" width="60" height="60" as="geometry" />
        </mxCell>
        <mxCell id="twIbyYaH0i1dScP80TUg-32" value="" style="endArrow=none;html=1;rounded=0;entryX=0.5;entryY=1;entryDx=0;entryDy=0;" edge="1" parent="1" target="twIbyYaH0i1dScP80TUg-19">
          <mxGeometry width="50" height="50" relative="1" as="geometry">
            <mxPoint x="-703" y="942" as="sourcePoint" />
            <mxPoint x="-547" y="815" as="targetPoint" />
          </mxGeometry>
        </mxCell>
        <mxCell id="twIbyYaH0i1dScP80TUg-33" value="" style="endArrow=none;html=1;rounded=0;" edge="1" parent="1">
          <mxGeometry width="50" height="50" relative="1" as="geometry">
            <mxPoint x="-600" y="935" as="sourcePoint" />
            <mxPoint x="-600" y="819" as="targetPoint" />
          </mxGeometry>
        </mxCell>
        <mxCell id="twIbyYaH0i1dScP80TUg-34" value="" style="endArrow=none;html=1;rounded=0;entryX=0.5;entryY=1;entryDx=0;entryDy=0;" edge="1" parent="1" target="_nHEcKlz6Lifmrje57NE-27">
          <mxGeometry width="50" height="50" relative="1" as="geometry">
            <mxPoint x="-507" y="934" as="sourcePoint" />
            <mxPoint x="-547" y="815" as="targetPoint" />
          </mxGeometry>
        </mxCell>
        <mxCell id="twIbyYaH0i1dScP80TUg-35" value="" style="endArrow=none;html=1;rounded=0;entryX=0.5;entryY=1;entryDx=0;entryDy=0;" edge="1" parent="1" target="_nHEcKlz6Lifmrje57NE-28">
          <mxGeometry width="50" height="50" relative="1" as="geometry">
            <mxPoint x="-407" y="939" as="sourcePoint" />
            <mxPoint x="-547" y="815" as="targetPoint" />
          </mxGeometry>
        </mxCell>
        <mxCell id="twIbyYaH0i1dScP80TUg-36" value="" style="endArrow=none;html=1;rounded=0;entryX=0.5;entryY=1;entryDx=0;entryDy=0;" edge="1" parent="1" target="_nHEcKlz6Lifmrje57NE-29">
          <mxGeometry width="50" height="50" relative="1" as="geometry">
            <mxPoint x="-322" y="940" as="sourcePoint" />
            <mxPoint x="-547" y="815" as="targetPoint" />
          </mxGeometry>
        </mxCell>
        <mxCell id="twIbyYaH0i1dScP80TUg-39" value="" style="endArrow=none;html=1;rounded=0;" edge="1" parent="1">
          <mxGeometry width="50" height="50" relative="1" as="geometry">
            <mxPoint x="-845" y="937" as="sourcePoint" />
            <mxPoint x="-320" y="937" as="targetPoint" />
          </mxGeometry>
        </mxCell>
        <mxCell id="twIbyYaH0i1dScP80TUg-40" value="" style="endArrow=none;html=1;rounded=0;entryX=0.5;entryY=1;entryDx=0;entryDy=0;" edge="1" parent="1" target="twIbyYaH0i1dScP80TUg-25">
          <mxGeometry width="50" height="50" relative="1" as="geometry">
            <mxPoint x="-845" y="940" as="sourcePoint" />
            <mxPoint x="-324" y="1106" as="targetPoint" />
          </mxGeometry>
        </mxCell>
        <mxCell id="twIbyYaH0i1dScP80TUg-41" value="" style="endArrow=classic;html=1;rounded=0;" edge="1" parent="1" target="twIbyYaH0i1dScP80TUg-42">
          <mxGeometry width="50" height="50" relative="1" as="geometry">
            <mxPoint x="-570" y="935" as="sourcePoint" />
            <mxPoint x="-570" y="1092" as="targetPoint" />
          </mxGeometry>
        </mxCell>
        <mxCell id="twIbyYaH0i1dScP80TUg-43" style="edgeStyle=orthogonalEdgeStyle;rounded=0;orthogonalLoop=1;jettySize=auto;html=1;" edge="1" parent="1" source="twIbyYaH0i1dScP80TUg-42" target="twIbyYaH0i1dScP80TUg-44">
          <mxGeometry relative="1" as="geometry">
            <mxPoint x="-665.1998901367188" y="1222.4333190917969" as="targetPoint" />
          </mxGeometry>
        </mxCell>
        <mxCell id="twIbyYaH0i1dScP80TUg-42" value="Desea seguir realizando calculos" style="rounded=1;whiteSpace=wrap;html=1;" vertex="1" parent="1">
          <mxGeometry x="-630" y="1062" width="120" height="60" as="geometry" />
        </mxCell>
        <mxCell id="twIbyYaH0i1dScP80TUg-44" value="Calculos globales" style="rounded=1;whiteSpace=wrap;html=1;" vertex="1" parent="1">
          <mxGeometry x="-725.1998901367188" y="1192.4333190917966" width="120" height="60" as="geometry" />
        </mxCell>
        <mxCell id="twIbyYaH0i1dScP80TUg-47" value="" style="endArrow=classic;html=1;rounded=0;" edge="1" parent="1" target="twIbyYaH0i1dScP80TUg-48">
          <mxGeometry width="50" height="50" relative="1" as="geometry">
            <mxPoint x="-566" y="1155" as="sourcePoint" />
            <mxPoint x="-479" y="1200" as="targetPoint" />
            <Array as="points">
              <mxPoint x="-479" y="1155" />
            </Array>
          </mxGeometry>
        </mxCell>
        <mxCell id="twIbyYaH0i1dScP80TUg-48" value="Desea cerrar sesión" style="rounded=1;whiteSpace=wrap;html=1;" vertex="1" parent="1">
          <mxGeometry x="-541.9999999999998" y="1196.9999999999998" width="120" height="60" as="geometry" />
        </mxCell>
        <mxCell id="twIbyYaH0i1dScP80TUg-49" value="" style="endArrow=none;html=1;rounded=0;" edge="1" parent="1">
          <mxGeometry width="50" height="50" relative="1" as="geometry">
            <mxPoint x="-185" y="937" as="sourcePoint" />
            <mxPoint x="296" y="937" as="targetPoint" />
          </mxGeometry>
        </mxCell>
        <mxCell id="twIbyYaH0i1dScP80TUg-50" value="" style="endArrow=classic;html=1;rounded=0;" edge="1" parent="1" target="twIbyYaH0i1dScP80TUg-52">
          <mxGeometry width="50" height="50" relative="1" as="geometry">
            <mxPoint x="46" y="947" as="sourcePoint" />
            <mxPoint x="46" y="1092" as="targetPoint" />
          </mxGeometry>
        </mxCell>
        <mxCell id="twIbyYaH0i1dScP80TUg-51" style="edgeStyle=orthogonalEdgeStyle;rounded=0;orthogonalLoop=1;jettySize=auto;html=1;" edge="1" parent="1" source="twIbyYaH0i1dScP80TUg-52" target="twIbyYaH0i1dScP80TUg-53">
          <mxGeometry relative="1" as="geometry">
            <mxPoint x="-49.19989013671875" y="1222.4333190917969" as="targetPoint" />
          </mxGeometry>
        </mxCell>
        <mxCell id="twIbyYaH0i1dScP80TUg-52" value="Desea seguir realizando calculos" style="rounded=1;whiteSpace=wrap;html=1;" vertex="1" parent="1">
          <mxGeometry x="-14" y="1062" width="120" height="60" as="geometry" />
        </mxCell>
        <mxCell id="twIbyYaH0i1dScP80TUg-53" value="Calculos con energía específica" style="rounded=1;whiteSpace=wrap;html=1;" vertex="1" parent="1">
          <mxGeometry x="-109.19989013671875" y="1192.4333190917966" width="120" height="60" as="geometry" />
        </mxCell>
        <mxCell id="twIbyYaH0i1dScP80TUg-54" value="" style="endArrow=classic;html=1;rounded=0;" edge="1" parent="1" target="twIbyYaH0i1dScP80TUg-55">
          <mxGeometry width="50" height="50" relative="1" as="geometry">
            <mxPoint x="50" y="1155" as="sourcePoint" />
            <mxPoint x="137" y="1200" as="targetPoint" />
            <Array as="points">
              <mxPoint x="137" y="1155" />
            </Array>
          </mxGeometry>
        </mxCell>
        <mxCell id="twIbyYaH0i1dScP80TUg-55" value="Desea cerrar sesión" style="rounded=1;whiteSpace=wrap;html=1;" vertex="1" parent="1">
          <mxGeometry x="74.00000000000023" y="1196.9999999999998" width="120" height="60" as="geometry" />
        </mxCell>
        <mxCell id="twIbyYaH0i1dScP80TUg-56" value="" style="endArrow=none;html=1;rounded=0;entryX=0.5;entryY=1;entryDx=0;entryDy=0;" edge="1" parent="1" target="twIbyYaH0i1dScP80TUg-21">
          <mxGeometry width="50" height="50" relative="1" as="geometry">
            <mxPoint x="-184" y="935" as="sourcePoint" />
            <mxPoint x="-35" y="1052" as="targetPoint" />
          </mxGeometry>
        </mxCell>
        <mxCell id="twIbyYaH0i1dScP80TUg-57" value="" style="endArrow=none;html=1;rounded=0;entryX=0.5;entryY=1;entryDx=0;entryDy=0;" edge="1" parent="1" target="twIbyYaH0i1dScP80TUg-7">
          <mxGeometry width="50" height="50" relative="1" as="geometry">
            <mxPoint x="-69" y="934" as="sourcePoint" />
            <mxPoint x="-35" y="1052" as="targetPoint" />
          </mxGeometry>
        </mxCell>
        <mxCell id="twIbyYaH0i1dScP80TUg-58" value="" style="endArrow=none;html=1;rounded=0;entryX=0.5;entryY=1;entryDx=0;entryDy=0;" edge="1" parent="1" target="twIbyYaH0i1dScP80TUg-8">
          <mxGeometry width="50" height="50" relative="1" as="geometry">
            <mxPoint x="26" y="937" as="sourcePoint" />
            <mxPoint x="-35" y="1052" as="targetPoint" />
          </mxGeometry>
        </mxCell>
        <mxCell id="twIbyYaH0i1dScP80TUg-59" value="" style="endArrow=none;html=1;rounded=0;entryX=0.5;entryY=1;entryDx=0;entryDy=0;" edge="1" parent="1" target="twIbyYaH0i1dScP80TUg-9">
          <mxGeometry width="50" height="50" relative="1" as="geometry">
            <mxPoint x="126" y="931" as="sourcePoint" />
            <mxPoint x="-35" y="1052" as="targetPoint" />
          </mxGeometry>
        </mxCell>
        <mxCell id="twIbyYaH0i1dScP80TUg-60" value="" style="endArrow=none;html=1;rounded=0;entryX=0.5;entryY=1;entryDx=0;entryDy=0;" edge="1" parent="1" target="twIbyYaH0i1dScP80TUg-10">
          <mxGeometry width="50" height="50" relative="1" as="geometry">
            <mxPoint x="211" y="934" as="sourcePoint" />
            <mxPoint x="130" y="1015" as="targetPoint" />
          </mxGeometry>
        </mxCell>
        <mxCell id="twIbyYaH0i1dScP80TUg-61" value="" style="endArrow=none;html=1;rounded=0;entryX=0.5;entryY=1;entryDx=0;entryDy=0;" edge="1" parent="1" target="twIbyYaH0i1dScP80TUg-28">
          <mxGeometry width="50" height="50" relative="1" as="geometry">
            <mxPoint x="289" y="936" as="sourcePoint" />
            <mxPoint x="130" y="1015" as="targetPoint" />
          </mxGeometry>
        </mxCell>
        <mxCell id="twIbyYaH0i1dScP80TUg-62" value="" style="endArrow=none;html=1;rounded=0;entryX=0.5;entryY=1;entryDx=0;entryDy=0;" edge="1" parent="1" target="twIbyYaH0i1dScP80TUg-55">
          <mxGeometry width="50" height="50" relative="1" as="geometry">
            <mxPoint x="134" y="1321" as="sourcePoint" />
            <mxPoint x="205" y="1310" as="targetPoint" />
          </mxGeometry>
        </mxCell>
        <mxCell id="twIbyYaH0i1dScP80TUg-64" value="" style="endArrow=none;html=1;rounded=0;" edge="1" parent="1">
          <mxGeometry width="50" height="50" relative="1" as="geometry">
            <mxPoint x="34" y="1320" as="sourcePoint" />
            <mxPoint x="234" y="1318" as="targetPoint" />
          </mxGeometry>
        </mxCell>
        <mxCell id="twIbyYaH0i1dScP80TUg-65" value="" style="endArrow=classic;html=1;rounded=0;" edge="1" parent="1" target="twIbyYaH0i1dScP80TUg-68">
          <mxGeometry width="50" height="50" relative="1" as="geometry">
            <mxPoint x="34" y="1320" as="sourcePoint" />
            <mxPoint x="34" y="1340" as="targetPoint" />
          </mxGeometry>
        </mxCell>
        <mxCell id="twIbyYaH0i1dScP80TUg-66" value="" style="endArrow=classic;html=1;rounded=0;" edge="1" parent="1" target="twIbyYaH0i1dScP80TUg-67">
          <mxGeometry width="50" height="50" relative="1" as="geometry">
            <mxPoint x="231" y="1318" as="sourcePoint" />
            <mxPoint x="231" y="1360" as="targetPoint" />
          </mxGeometry>
        </mxCell>
        <mxCell id="twIbyYaH0i1dScP80TUg-67" value="MENU PRINCIPAL" style="rounded=1;whiteSpace=wrap;html=1;" vertex="1" parent="1">
          <mxGeometry x="173" y="1346" width="120" height="60" as="geometry" />
        </mxCell>
        <mxCell id="twIbyYaH0i1dScP80TUg-68" value="SALIDA DEL PROGRAMA" style="rounded=1;whiteSpace=wrap;html=1;" vertex="1" parent="1">
          <mxGeometry x="-24" y="1346" width="120" height="60" as="geometry" />
        </mxCell>
        <mxCell id="twIbyYaH0i1dScP80TUg-69" value="" style="endArrow=none;html=1;rounded=0;" edge="1" parent="1">
          <mxGeometry width="50" height="50" relative="1" as="geometry">
            <mxPoint x="-567" y="1334" as="sourcePoint" />
            <mxPoint x="-367" y="1332" as="targetPoint" />
          </mxGeometry>
        </mxCell>
        <mxCell id="twIbyYaH0i1dScP80TUg-70" value="" style="endArrow=classic;html=1;rounded=0;" edge="1" parent="1" target="twIbyYaH0i1dScP80TUg-73">
          <mxGeometry width="50" height="50" relative="1" as="geometry">
            <mxPoint x="-567" y="1334" as="sourcePoint" />
            <mxPoint x="-567" y="1354" as="targetPoint" />
          </mxGeometry>
        </mxCell>
        <mxCell id="twIbyYaH0i1dScP80TUg-71" value="" style="endArrow=classic;html=1;rounded=0;" edge="1" parent="1" target="twIbyYaH0i1dScP80TUg-72">
          <mxGeometry width="50" height="50" relative="1" as="geometry">
            <mxPoint x="-370" y="1332" as="sourcePoint" />
            <mxPoint x="-370" y="1374" as="targetPoint" />
          </mxGeometry>
        </mxCell>
        <mxCell id="twIbyYaH0i1dScP80TUg-72" value="MENU PRINCIPAL" style="rounded=1;whiteSpace=wrap;html=1;" vertex="1" parent="1">
          <mxGeometry x="-428" y="1360" width="120" height="60" as="geometry" />
        </mxCell>
        <mxCell id="twIbyYaH0i1dScP80TUg-73" value="SALIDA DEL PROGRAMA" style="rounded=1;whiteSpace=wrap;html=1;" vertex="1" parent="1">
          <mxGeometry x="-625" y="1360" width="120" height="60" as="geometry" />
        </mxCell>
        <mxCell id="twIbyYaH0i1dScP80TUg-74" value="" style="endArrow=none;html=1;rounded=0;entryX=0.572;entryY=0.995;entryDx=0;entryDy=0;entryPerimeter=0;" edge="1" parent="1" target="twIbyYaH0i1dScP80TUg-48">
          <mxGeometry width="50" height="50" relative="1" as="geometry">
            <mxPoint x="-473" y="1335" as="sourcePoint" />
            <mxPoint x="-401" y="1314" as="targetPoint" />
          </mxGeometry>
        </mxCell>
        <mxCell id="twIbyYaH0i1dScP80TUg-75" value="" style="endArrow=none;html=1;rounded=0;" edge="1" parent="1">
          <mxGeometry width="50" height="50" relative="1" as="geometry">
            <mxPoint x="382" y="812" as="sourcePoint" />
            <mxPoint x="582" y="810" as="targetPoint" />
          </mxGeometry>
        </mxCell>
        <mxCell id="twIbyYaH0i1dScP80TUg-76" value="" style="endArrow=classic;html=1;rounded=0;" edge="1" parent="1" target="twIbyYaH0i1dScP80TUg-79">
          <mxGeometry width="50" height="50" relative="1" as="geometry">
            <mxPoint x="382" y="812" as="sourcePoint" />
            <mxPoint x="382" y="832" as="targetPoint" />
          </mxGeometry>
        </mxCell>
        <mxCell id="twIbyYaH0i1dScP80TUg-77" value="" style="endArrow=classic;html=1;rounded=0;" edge="1" parent="1" target="twIbyYaH0i1dScP80TUg-78">
          <mxGeometry width="50" height="50" relative="1" as="geometry">
            <mxPoint x="579" y="810" as="sourcePoint" />
            <mxPoint x="579" y="852" as="targetPoint" />
          </mxGeometry>
        </mxCell>
        <mxCell id="twIbyYaH0i1dScP80TUg-78" value="MENU PRINCIPAL" style="rounded=1;whiteSpace=wrap;html=1;" vertex="1" parent="1">
          <mxGeometry x="521" y="838" width="120" height="60" as="geometry" />
        </mxCell>
        <mxCell id="twIbyYaH0i1dScP80TUg-79" value="SALIDA DEL PROGRAMA" style="rounded=1;whiteSpace=wrap;html=1;" vertex="1" parent="1">
          <mxGeometry x="324" y="838" width="120" height="60" as="geometry" />
        </mxCell>
        <mxCell id="twIbyYaH0i1dScP80TUg-80" value="" style="endArrow=none;html=1;rounded=0;entryX=0.25;entryY=1;entryDx=0;entryDy=0;" edge="1" parent="1" target="_nHEcKlz6Lifmrje57NE-57">
          <mxGeometry width="50" height="50" relative="1" as="geometry">
            <mxPoint x="620" y="721" as="sourcePoint" />
            <mxPoint x="761" y="728" as="targetPoint" />
          </mxGeometry>
        </mxCell>
        <mxCell id="twIbyYaH0i1dScP80TUg-81" value="" style="endArrow=none;html=1;rounded=0;entryX=0.5;entryY=1;entryDx=0;entryDy=0;" edge="1" parent="1" target="_nHEcKlz6Lifmrje57NE-60">
          <mxGeometry width="50" height="50" relative="1" as="geometry">
            <mxPoint x="720" y="718" as="sourcePoint" />
            <mxPoint x="761" y="728" as="targetPoint" />
          </mxGeometry>
        </mxCell>
        <mxCell id="twIbyYaH0i1dScP80TUg-82" value="" style="endArrow=none;html=1;rounded=0;entryX=0.5;entryY=1;entryDx=0;entryDy=0;" edge="1" parent="1" target="_nHEcKlz6Lifmrje57NE-62">
          <mxGeometry width="50" height="50" relative="1" as="geometry">
            <mxPoint x="830" y="718" as="sourcePoint" />
            <mxPoint x="761" y="728" as="targetPoint" />
          </mxGeometry>
        </mxCell>
        <mxCell id="twIbyYaH0i1dScP80TUg-83" value="" style="endArrow=none;html=1;rounded=0;" edge="1" parent="1">
          <mxGeometry width="50" height="50" relative="1" as="geometry">
            <mxPoint x="619" y="719" as="sourcePoint" />
            <mxPoint x="830" y="717" as="targetPoint" />
          </mxGeometry>
        </mxCell>
        <mxCell id="twIbyYaH0i1dScP80TUg-84" value="" style="endArrow=none;html=1;rounded=0;" edge="1" parent="1">
          <mxGeometry width="50" height="50" relative="1" as="geometry">
            <mxPoint x="685" y="752" as="sourcePoint" />
            <mxPoint x="885" y="750" as="targetPoint" />
          </mxGeometry>
        </mxCell>
        <mxCell id="twIbyYaH0i1dScP80TUg-85" value="" style="endArrow=classic;html=1;rounded=0;" edge="1" parent="1" target="twIbyYaH0i1dScP80TUg-88">
          <mxGeometry width="50" height="50" relative="1" as="geometry">
            <mxPoint x="685" y="752" as="sourcePoint" />
            <mxPoint x="685" y="772" as="targetPoint" />
          </mxGeometry>
        </mxCell>
        <mxCell id="twIbyYaH0i1dScP80TUg-86" value="" style="endArrow=classic;html=1;rounded=0;" edge="1" parent="1" target="twIbyYaH0i1dScP80TUg-87">
          <mxGeometry width="50" height="50" relative="1" as="geometry">
            <mxPoint x="882" y="750" as="sourcePoint" />
            <mxPoint x="882" y="792" as="targetPoint" />
          </mxGeometry>
        </mxCell>
        <mxCell id="twIbyYaH0i1dScP80TUg-87" value="MENU PRINCIPAL" style="rounded=1;whiteSpace=wrap;html=1;" vertex="1" parent="1">
          <mxGeometry x="824" y="778" width="120" height="60" as="geometry" />
        </mxCell>
        <mxCell id="twIbyYaH0i1dScP80TUg-88" value="SALIDA DEL PROGRAMA" style="rounded=1;whiteSpace=wrap;html=1;" vertex="1" parent="1">
          <mxGeometry x="627" y="778" width="120" height="60" as="geometry" />
        </mxCell>
        <mxCell id="twIbyYaH0i1dScP80TUg-89" value="" style="endArrow=classic;html=1;rounded=0;" edge="1" parent="1">
          <mxGeometry width="50" height="50" relative="1" as="geometry">
            <mxPoint x="760" y="722" as="sourcePoint" />
            <mxPoint x="760" y="756" as="targetPoint" />
          </mxGeometry>
        </mxCell>
        <mxCell id="twIbyYaH0i1dScP80TUg-90" value="" style="endArrow=none;html=1;rounded=0;" edge="1" parent="1">
          <mxGeometry width="50" height="50" relative="1" as="geometry">
            <mxPoint x="970" y="848" as="sourcePoint" />
            <mxPoint x="1170" y="846" as="targetPoint" />
          </mxGeometry>
        </mxCell>
        <mxCell id="twIbyYaH0i1dScP80TUg-91" value="" style="endArrow=classic;html=1;rounded=0;" edge="1" parent="1" target="twIbyYaH0i1dScP80TUg-94">
          <mxGeometry width="50" height="50" relative="1" as="geometry">
            <mxPoint x="970" y="848" as="sourcePoint" />
            <mxPoint x="970" y="868" as="targetPoint" />
          </mxGeometry>
        </mxCell>
        <mxCell id="twIbyYaH0i1dScP80TUg-92" value="" style="endArrow=classic;html=1;rounded=0;" edge="1" parent="1" target="twIbyYaH0i1dScP80TUg-93">
          <mxGeometry width="50" height="50" relative="1" as="geometry">
            <mxPoint x="1167" y="846" as="sourcePoint" />
            <mxPoint x="1167" y="888" as="targetPoint" />
          </mxGeometry>
        </mxCell>
        <mxCell id="twIbyYaH0i1dScP80TUg-93" value="MENU PRINCIPAL" style="rounded=1;whiteSpace=wrap;html=1;" vertex="1" parent="1">
          <mxGeometry x="1109" y="874" width="120" height="60" as="geometry" />
        </mxCell>
        <mxCell id="twIbyYaH0i1dScP80TUg-94" value="SALIDA DEL PROGRAMA" style="rounded=1;whiteSpace=wrap;html=1;" vertex="1" parent="1">
          <mxGeometry x="912" y="874" width="120" height="60" as="geometry" />
        </mxCell>
        <mxCell id="twIbyYaH0i1dScP80TUg-95" value="" style="endArrow=classic;html=1;rounded=0;exitX=0.582;exitY=0.993;exitDx=0;exitDy=0;exitPerimeter=0;" edge="1" parent="1" source="_nHEcKlz6Lifmrje57NE-71">
          <mxGeometry width="50" height="50" relative="1" as="geometry">
            <mxPoint x="928" y="872" as="sourcePoint" />
            <mxPoint x="990" y="848" as="targetPoint" />
          </mxGeometry>
        </mxCell>
        <mxCell id="twIbyYaH0i1dScP80TUg-96" value="" style="endArrow=classic;html=1;rounded=0;exitX=0.375;exitY=1;exitDx=0;exitDy=0;exitPerimeter=0;" edge="1" parent="1" source="_nHEcKlz6Lifmrje57NE-73">
          <mxGeometry width="50" height="50" relative="1" as="geometry">
            <mxPoint x="928" y="872" as="sourcePoint" />
            <mxPoint x="1105" y="844" as="targetPoint" />
          </mxGeometry>
        </mxCell>
        <mxCell id="twIbyYaH0i1dScP80TUg-97" value="" style="endArrow=none;html=1;rounded=0;" edge="1" parent="1">
          <mxGeometry width="50" height="50" relative="1" as="geometry">
            <mxPoint x="1201" y="502" as="sourcePoint" />
            <mxPoint x="1401" y="500" as="targetPoint" />
          </mxGeometry>
        </mxCell>
        <mxCell id="twIbyYaH0i1dScP80TUg-98" value="" style="endArrow=classic;html=1;rounded=0;" edge="1" parent="1" target="twIbyYaH0i1dScP80TUg-101">
          <mxGeometry width="50" height="50" relative="1" as="geometry">
            <mxPoint x="1201" y="502" as="sourcePoint" />
            <mxPoint x="1201" y="522" as="targetPoint" />
          </mxGeometry>
        </mxCell>
        <mxCell id="twIbyYaH0i1dScP80TUg-99" value="" style="endArrow=classic;html=1;rounded=0;" edge="1" parent="1" target="twIbyYaH0i1dScP80TUg-100">
          <mxGeometry width="50" height="50" relative="1" as="geometry">
            <mxPoint x="1398" y="500" as="sourcePoint" />
            <mxPoint x="1398" y="542" as="targetPoint" />
          </mxGeometry>
        </mxCell>
        <mxCell id="twIbyYaH0i1dScP80TUg-100" value="MENU PRINCIPAL" style="rounded=1;whiteSpace=wrap;html=1;" vertex="1" parent="1">
          <mxGeometry x="1340" y="528" width="120" height="60" as="geometry" />
        </mxCell>
        <mxCell id="twIbyYaH0i1dScP80TUg-101" value="SALIDA DEL PROGRAMA" style="rounded=1;whiteSpace=wrap;html=1;" vertex="1" parent="1">
          <mxGeometry x="1143" y="528" width="120" height="60" as="geometry" />
        </mxCell>
        <mxCell id="twIbyYaH0i1dScP80TUg-102" value="" style="endArrow=none;html=1;rounded=0;" edge="1" parent="1">
          <mxGeometry width="50" height="50" relative="1" as="geometry">
            <mxPoint x="1424" y="729" as="sourcePoint" />
            <mxPoint x="1624" y="727" as="targetPoint" />
          </mxGeometry>
        </mxCell>
        <mxCell id="twIbyYaH0i1dScP80TUg-103" value="" style="endArrow=classic;html=1;rounded=0;" edge="1" parent="1" target="twIbyYaH0i1dScP80TUg-106">
          <mxGeometry width="50" height="50" relative="1" as="geometry">
            <mxPoint x="1424" y="729" as="sourcePoint" />
            <mxPoint x="1424" y="749" as="targetPoint" />
          </mxGeometry>
        </mxCell>
        <mxCell id="twIbyYaH0i1dScP80TUg-104" value="" style="endArrow=classic;html=1;rounded=0;" edge="1" parent="1" target="twIbyYaH0i1dScP80TUg-105">
          <mxGeometry width="50" height="50" relative="1" as="geometry">
            <mxPoint x="1621" y="727" as="sourcePoint" />
            <mxPoint x="1621" y="769" as="targetPoint" />
          </mxGeometry>
        </mxCell>
        <mxCell id="twIbyYaH0i1dScP80TUg-105" value="MENU PRINCIPAL" style="rounded=1;whiteSpace=wrap;html=1;" vertex="1" parent="1">
          <mxGeometry x="1563" y="756" width="120" height="59" as="geometry" />
        </mxCell>
        <mxCell id="twIbyYaH0i1dScP80TUg-106" value="SALIDA DEL PROGRAMA" style="rounded=1;whiteSpace=wrap;html=1;" vertex="1" parent="1">
          <mxGeometry x="1366" y="755" width="120" height="60" as="geometry" />
        </mxCell>
        <mxCell id="twIbyYaH0i1dScP80TUg-107" value="ENTRE PERIODOS" style="rounded=1;whiteSpace=wrap;html=1;fontSize=9;" vertex="1" parent="1">
          <mxGeometry x="1850" y="682" width="120" height="60" as="geometry" />
        </mxCell>
        <mxCell id="twIbyYaH0i1dScP80TUg-109" value="" style="endArrow=classic;html=1;rounded=0;entryX=0.549;entryY=0.049;entryDx=0;entryDy=0;entryPerimeter=0;" edge="1" parent="1" target="twIbyYaH0i1dScP80TUg-107">
          <mxGeometry width="50" height="50" relative="1" as="geometry">
            <mxPoint x="1916" y="612" as="sourcePoint" />
            <mxPoint x="1844" y="676" as="targetPoint" />
          </mxGeometry>
        </mxCell>
        <mxCell id="twIbyYaH0i1dScP80TUg-110" value="" style="endArrow=none;html=1;rounded=0;" edge="1" parent="1">
          <mxGeometry width="50" height="50" relative="1" as="geometry">
            <mxPoint x="1744" y="791" as="sourcePoint" />
            <mxPoint x="1944" y="789" as="targetPoint" />
          </mxGeometry>
        </mxCell>
        <mxCell id="twIbyYaH0i1dScP80TUg-111" value="" style="endArrow=classic;html=1;rounded=0;" edge="1" parent="1" target="twIbyYaH0i1dScP80TUg-114">
          <mxGeometry width="50" height="50" relative="1" as="geometry">
            <mxPoint x="1744" y="791" as="sourcePoint" />
            <mxPoint x="1744" y="811" as="targetPoint" />
          </mxGeometry>
        </mxCell>
        <mxCell id="twIbyYaH0i1dScP80TUg-112" value="" style="endArrow=classic;html=1;rounded=0;" edge="1" parent="1" target="twIbyYaH0i1dScP80TUg-113">
          <mxGeometry width="50" height="50" relative="1" as="geometry">
            <mxPoint x="1941" y="789" as="sourcePoint" />
            <mxPoint x="1941" y="831" as="targetPoint" />
          </mxGeometry>
        </mxCell>
        <mxCell id="twIbyYaH0i1dScP80TUg-113" value="MENU PRINCIPAL" style="rounded=1;whiteSpace=wrap;html=1;" vertex="1" parent="1">
          <mxGeometry x="1883" y="818" width="120" height="59" as="geometry" />
        </mxCell>
        <mxCell id="twIbyYaH0i1dScP80TUg-114" value="SALIDA DEL PROGRAMA" style="rounded=1;whiteSpace=wrap;html=1;" vertex="1" parent="1">
          <mxGeometry x="1686" y="817" width="120" height="60" as="geometry" />
        </mxCell>
        <mxCell id="twIbyYaH0i1dScP80TUg-115" value="" style="endArrow=none;html=1;rounded=0;entryX=0.5;entryY=1;entryDx=0;entryDy=0;" edge="1" parent="1" target="_nHEcKlz6Lifmrje57NE-106">
          <mxGeometry width="50" height="50" relative="1" as="geometry">
            <mxPoint x="1760" y="762" as="sourcePoint" />
            <mxPoint x="1833" y="836" as="targetPoint" />
          </mxGeometry>
        </mxCell>
        <mxCell id="twIbyYaH0i1dScP80TUg-116" value="" style="endArrow=none;html=1;rounded=0;" edge="1" parent="1">
          <mxGeometry width="50" height="50" relative="1" as="geometry">
            <mxPoint x="1761" y="762" as="sourcePoint" />
            <mxPoint x="1926" y="764" as="targetPoint" />
          </mxGeometry>
        </mxCell>
        <mxCell id="twIbyYaH0i1dScP80TUg-117" value="" style="endArrow=none;html=1;rounded=0;" edge="1" parent="1">
          <mxGeometry width="50" height="50" relative="1" as="geometry">
            <mxPoint x="1762" y="614" as="sourcePoint" />
            <mxPoint x="1916" y="614" as="targetPoint" />
          </mxGeometry>
        </mxCell>
        <mxCell id="twIbyYaH0i1dScP80TUg-118" value="" style="endArrow=none;html=1;rounded=0;entryX=0.589;entryY=0.983;entryDx=0;entryDy=0;entryPerimeter=0;" edge="1" parent="1" target="twIbyYaH0i1dScP80TUg-107">
          <mxGeometry width="50" height="50" relative="1" as="geometry">
            <mxPoint x="1921" y="767" as="sourcePoint" />
            <mxPoint x="1879" y="679" as="targetPoint" />
          </mxGeometry>
        </mxCell>
        <mxCell id="twIbyYaH0i1dScP80TUg-119" value="" style="endArrow=classic;html=1;rounded=0;" edge="1" parent="1">
          <mxGeometry width="50" height="50" relative="1" as="geometry">
            <mxPoint x="1837" y="765" as="sourcePoint" />
            <mxPoint x="1837" y="790" as="targetPoint" />
          </mxGeometry>
        </mxCell>
        <mxCell id="twIbyYaH0i1dScP80TUg-120" value="&lt;span style=&quot;font-size: 10px;&quot;&gt;&lt;b&gt;CALCULOS ESTADISTICOS&lt;/b&gt;&lt;/span&gt;" style="rounded=1;whiteSpace=wrap;html=1;fontSize=8;fillColor=#d5e8d4;strokeColor=#82b366;" vertex="1" parent="1">
          <mxGeometry x="-155" y="344" width="120" height="60" as="geometry" />
        </mxCell>
        <mxCell id="twIbyYaH0i1dScP80TUg-121" value="" style="endArrow=classic;html=1;rounded=0;exitX=0.5;exitY=1;exitDx=0;exitDy=0;" edge="1" parent="1" source="twIbyYaH0i1dScP80TUg-120">
          <mxGeometry width="50" height="50" relative="1" as="geometry">
            <mxPoint x="176" y="497" as="sourcePoint" />
            <mxPoint x="-95" y="495" as="targetPoint" />
          </mxGeometry>
        </mxCell>
      </root>
    </mxGraphModel>
  </diagram>
</mxfile>
